<svg xmlns="http://www.w3.org/2000/svg" viewBox="0 0 252.08 305.47"><defs><style>.uuid-4446a536-4449-47e4-9b61-e2ebc4353854{fill:#4a4898;}.uuid-4446a536-4449-47e4-9b61-e2ebc4353854,.uuid-052f8c1d-75ea-4f70-a1d2-7615c8b73998{mix-blend-mode:multiply;}.uuid-4446a536-4449-47e4-9b61-e2ebc4353854,.uuid-052f8c1d-75ea-4f70-a1d2-7615c8b73998,.uuid-3099aacb-2371-4e3b-bb8d-647d6e879d66,.uuid-f84ebb42-7ff0-49ea-98da-ed62a8bc3959{stroke-width:0px;}.uuid-052f8c1d-75ea-4f70-a1d2-7615c8b73998{fill:#413f83;}.uuid-b6c4cbe4-fe14-44c3-bb22-1e1e36ac554f{isolation:isolate;}.uuid-3099aacb-2371-4e3b-bb8d-647d6e879d66{fill:#52b7bc;}.uuid-f84ebb42-7ff0-49ea-98da-ed62a8bc3959{fill:#e95e79;}</style></defs><g class="uuid-b6c4cbe4-fe14-44c3-bb22-1e1e36ac554f"><g id="uuid-8001230f-e9f7-42c0-9e03-51e58699c245"><path class="uuid-f84ebb42-7ff0-49ea-98da-ed62a8bc3959" d="m152.63,83.42c2.21-1.8,9.99-9.12,15.94-13.44,6.41-4.65,14.25-9.21,25.01-12.91h0c20.23-5.8,10.05-38.23-11.68-31.44-.74.23-8.03,3.62-13.17,6.77-24.45,15.01,1.97-50.16-31.49-27.6-19.16,12.92-2.23,92.97,15.38,78.62Z"></path><path class="uuid-4446a536-4449-47e4-9b61-e2ebc4353854" d="m250.07,159.2c-5.63-9.02-12.57-4.29-18.93-.71-10.3,5.8-20.44,11.88-30.69,17.76-3.14,1.8-5.72,2.92-11.1,3.75,4.13-5.16,7.38-7.12,11.07-9.8,10.97-7.97,22.28-15.49,33.29-23.41,4.21-3.03,8.22-6.44,11.85-10.13,3.69-3.75,5.07-8.62,2.08-13.33-3.19-5.02-8.17-4.46-13.05-2.66-13.46,4.97-24.45,14.32-37.04,20.83-9.36,4.84-18.67,9.78-28.63,13.62,5.83-8.11,14.33-12.69,21.86-18.42,10.23-7.79,20.83-15.11,31.11-22.84,3.59-2.7,7.55-5.88,4.95-11.26-2.69-5.58-7.62-6.65-13.27-5.39-8.36,1.86-15.19,6.81-22.13,11.38-11.52,7.58-22.8,15.52-34.75,22.66,5.44-9.26,12.26-15.55,20.42-21.91,3.65-2.85,7.64-4.82,10.15-7.67,2.4-2.73,3.53-6.15,1.13-9.54-2.39-3.37-5.95-3.28-9.43-2.3-14.34,4.05-29.26,13.05-42.87,24.86,5.76,18.46,7.89,37.2,4.78,52.71-4.12,20.54-14.3,37.11-33.04,49.17-6.74,4.33-13.6,8.02-20.61,11.15,2.7,11.13,7.98,21.66,16.33,31.62,16.22,19.33,35.09,33.67,58.16,43.01,2.88,1.17,5.92,2.03,8.95,2.75,5.89,1.41,10.23-1.37,13.38-5.94,3.16-4.59,2.28-9.18-1.1-13.45-5.17-6.54-10.77-12.82-15.3-19.79-8.96-13.79-7.76-24.75,3.71-36.65,12.4-12.87,27.48-22.35,42.12-32.35,9.76-6.67,19.76-13,29.38-19.88,5.98-4.27,12.68-9.11,7.22-17.85Z"></path><path class="uuid-3099aacb-2371-4e3b-bb8d-647d6e879d66" d="m85.57,199.18c2.94-28.49,24.3-61.72,50.53-84.48-9.17-29.43-27.58-58.15-48.78-71.93-2.86-1.86-6.04-2.94-9.14-.57-3.11,2.38-3.05,5.78-1.65,8.91,1.47,3.27,4.5,6.16,7,9.75,5.57,8.01,9.96,15.58,12.27,25.45-8.77-9.78-16.71-20.08-24.96-30.14-4.97-6.06-9.74-12.42-16.75-16.44-4.73-2.71-9.47-3.13-13.46,1.15-3.84,4.12-1.17,8.09,1.31,11.53,7.1,9.84,14.6,19.4,21.64,29.28,5.18,7.27,11.56,13.77,14.54,22.71-7.9-6.25-14.91-13.3-21.98-20.28-9.52-9.39-16.81-20.89-27.55-29.13-3.89-2.99-8.23-4.88-12.5-1.25-4.01,3.41-4.13,8.18-1.86,12.59,2.24,4.34,4.9,8.54,7.84,12.44,7.7,10.22,15.79,20.15,23.44,30.4,2.57,3.45,4.96,6.13,7.23,11.93-4.62-2.26-6.63-3.99-8.95-6.49-7.59-8.17-15.03-16.48-22.68-24.59-4.73-5.01-9.66-11.21-17.26-4.65-7.36,6.35-2.67,12.58,1.52,18.1,6.74,8.88,13.98,17.38,20.91,26.12,10.39,13.11,21.33,25.86,28.89,40.93,7,13.93,5.01,24.14-6.91,34.06-6.03,5.01-12.83,9.1-19.32,13.55-4.24,2.91-6.32,6.79-4.76,11.81,1.55,5,4.68,8.71,10.39,9.09,2.93.2,5.9.27,8.83.03,15.53-1.3,29.99-5.16,43.82-11.33-2.2-9.1-2.69-18.61-1.66-28.55Z"></path><path class="uuid-052f8c1d-75ea-4f70-a1d2-7615c8b73998" d="m140.88,167.4c3.11-15.51.98-34.25-4.78-52.71-26.23,22.77-47.59,55.99-50.53,84.48-1.03,9.94-.55,19.44,1.66,28.55,7.01-3.13,13.88-6.82,20.61-11.15,18.74-12.06,28.92-28.63,33.04-49.17Z"></path></g></g></svg>