<svg xmlns="http://www.w3.org/2000/svg" viewBox="0 0 417.77 219.33"><defs><style>.uuid-1cc10b9b-c1c0-469e-8922-c26edfc8fb61{fill:#4a4898;}.uuid-1cc10b9b-c1c0-469e-8922-c26edfc8fb61,.uuid-370e4140-e488-4f42-a7be-cb63ce936b16{mix-blend-mode:multiply;}.uuid-1cc10b9b-c1c0-469e-8922-c26edfc8fb61,.uuid-370e4140-e488-4f42-a7be-cb63ce936b16,.uuid-275864d7-42bf-4e1c-bba3-ab460de860ba,.uuid-8750c423-0271-4b46-a557-07ceffee1c15,.uuid-c1a52835-4dec-40a9-95c0-4d06bec79939{stroke-width:0px;}.uuid-370e4140-e488-4f42-a7be-cb63ce936b16{fill:#413f83;}.uuid-dfeff310-a663-49f5-8019-998cc7ad06c7{isolation:isolate;}.uuid-275864d7-42bf-4e1c-bba3-ab460de860ba{fill:#52b7bc;}.uuid-8750c423-0271-4b46-a557-07ceffee1c15{fill:#1e1e1c;}.uuid-c1a52835-4dec-40a9-95c0-4d06bec79939{fill:#e95e79;}</style></defs><g class="uuid-dfeff310-a663-49f5-8019-998cc7ad06c7"><g id="uuid-e7cd7ee9-4510-43ba-a682-7f8acbe36611"><path class="uuid-8750c423-0271-4b46-a557-07ceffee1c15" d="m30.76,121.77l-6.95,1.06c0-3.24-1.96-7.58-7.21-7.58s-9.02,4.24-9.02,11.35c0,8.06,4.83,11.35,10.02,11.35,4.51,0,7.53-2.97,8.96-4.99l4.45,4.67c-1.54,2.23-5.83,6.84-13.63,6.84-10.39,0-17.39-6.79-17.39-17.87s6.89-17.87,16.49-17.87c10.5,0,14.27,7.42,14.27,13.05Z"></path><path class="uuid-8750c423-0271-4b46-a557-07ceffee1c15" d="m58.34,128.72v15.38h-7.32v-14.11c0-2.97-1.43-4.99-4.4-4.99-3.71,0-5.3,3.18-5.3,6.15v12.94h-7.27v-37.44h7.11l.05,16.49h.16c1.27-2.55,3.55-4.4,7.58-4.4,6.26,0,9.39,4.3,9.39,9.97Z"></path><path class="uuid-8750c423-0271-4b46-a557-07ceffee1c15" d="m87.3,143.94s-1.54.48-3.55.48c-3.45,0-5.3-1.33-5.78-3.98-.8,1.54-2.86,3.98-8.06,3.98s-8.49-2.7-8.49-6.89c0-6.2,6.52-7.74,15.86-7.95h.32v-1.11c0-2.55-1.48-4.24-4.56-4.24-2.76,0-4.3,1.11-4.3,2.92,0,.37.05.69.21.95l-6.36,1.06s-.32-1.06-.32-2.44c0-4.77,4.19-7.95,11.08-7.95,7.37,0,11.35,3.71,11.35,10.02v8.17c0,1.17.42,1.64,1.38,1.64.32,0,.64-.05.9-.16l.32,5.52Zm-9.71-8.7v-2.02h-.32c-5.99.16-8.8,1.01-8.8,3.34,0,1.64,1.33,2.49,3.5,2.49,3.5,0,5.62-1.8,5.62-3.82Z"></path><path class="uuid-8750c423-0271-4b46-a557-07ceffee1c15" d="m107.35,119.49l-1.91,7c-.85-.58-1.75-.9-2.86-.9-2.76,0-5.14,2.23-5.14,6.42v12.09h-7.27v-25.03l5.67-.21c.53,1.64.9,4.45.9,5.52h.21c.95-3.18,2.92-5.62,6.68-5.62,1.43,0,2.6.27,3.71.74Z"></path><path class="uuid-8750c423-0271-4b46-a557-07ceffee1c15" d="m112.66,115.57c-2.6,0-4.67-1.86-4.67-4.51s2.07-4.51,4.67-4.51,4.72,1.91,4.72,4.51-2.12,4.51-4.72,4.51Zm-3.66,3.5l7.27-.21v25.24h-7.27v-25.03Z"></path><path class="uuid-8750c423-0271-4b46-a557-07ceffee1c15" d="m140.24,142.61s-2.65,1.8-7.48,1.8c-6.58,0-10.02-3.55-10.02-10.66v-9.17h-3.82v-5.52h4.14v-7.05l7-.27v7.32h8.8v5.52h-8.8v8.86c0,3.34,1.27,4.83,4.08,4.83,2.55,0,4.03-1.33,4.03-1.33l2.07,5.67Z"></path><path class="uuid-8750c423-0271-4b46-a557-07ceffee1c15" d="m166.7,143.94s-1.54.48-3.55.48c-3.45,0-5.3-1.33-5.78-3.98-.8,1.54-2.86,3.98-8.06,3.98s-8.49-2.7-8.49-6.89c0-6.2,6.52-7.74,15.86-7.95h.32v-1.11c0-2.55-1.48-4.24-4.56-4.24-2.76,0-4.3,1.11-4.3,2.92,0,.37.05.69.21.95l-6.36,1.06s-.32-1.06-.32-2.44c0-4.77,4.19-7.95,11.08-7.95,7.37,0,11.35,3.71,11.35,10.02v8.17c0,1.17.42,1.64,1.38,1.64.32,0,.64-.05.9-.16l.32,5.52Zm-9.71-8.7v-2.02h-.32c-5.99.16-8.8,1.01-8.8,3.34,0,1.64,1.33,2.49,3.5,2.49,3.5,0,5.62-1.8,5.62-3.82Z"></path><path class="uuid-8750c423-0271-4b46-a557-07ceffee1c15" d="m195.72,131.58c0,7.9-4.83,12.83-11.51,12.83-4.14,0-6.89-2.07-8.33-5.04h-.11c0,1.01-.27,3.18-.64,4.72h-5.57v-37.44h7.27v16.07c1.38-2.23,3.77-3.98,7.74-3.98,6.31,0,11.14,4.67,11.14,12.83Zm-7.37,0c0-4.14-2.12-6.74-5.73-6.74s-5.78,3.18-5.78,5.94v1.64c0,2.97,2.17,5.89,5.94,5.89,3.39,0,5.57-2.6,5.57-6.74Z"></path><path class="uuid-8750c423-0271-4b46-a557-07ceffee1c15" d="m199.11,106.66h7.27v37.44h-7.27v-37.44Z"></path><path class="uuid-8750c423-0271-4b46-a557-07ceffee1c15" d="m230.51,136.04l3.45,3.98c-1.7,2.23-5.36,4.4-10.77,4.4-8.43,0-13.47-5.3-13.47-12.83s5.04-12.83,12.78-12.83c7.32,0,11.51,4.99,11.51,11.83,0,1.59-.21,2.65-.21,2.65h-16.86c.64,3.34,2.97,5.67,7.11,5.67,3.55,0,5.41-1.7,6.47-2.86Zm-13.58-6.58h10.45c-.05-2.97-1.86-5.2-4.88-5.2-2.86,0-5.04,1.86-5.57,5.2Z"></path><path class="uuid-8750c423-0271-4b46-a557-07ceffee1c15" d="m41.58,159.73v8.59h13.05v6.1h-13.05v14.11h-7.53v-35h22.65v6.2h-15.11Z"></path><path class="uuid-8750c423-0271-4b46-a557-07ceffee1c15" d="m83.69,176.01c0,7.53-5.25,12.83-13.15,12.83s-13.21-5.3-13.21-12.83,5.25-12.83,13.21-12.83,13.15,5.3,13.15,12.83Zm-7.37,0c0-4.03-2.23-6.89-5.78-6.89s-5.83,2.86-5.83,6.89,2.23,6.89,5.83,6.89,5.78-2.81,5.78-6.89Z"></path><path class="uuid-8750c423-0271-4b46-a557-07ceffee1c15" d="m110.69,163.5v25.03l-5.89.21c-.42-1.64-.8-4.19-.8-4.99h-.11c-1.22,2.92-3.55,5.09-7.74,5.09-6.2,0-9.39-4.3-9.39-9.97v-15.38h7.32v14.11c0,2.97,1.48,4.99,4.4,4.99,3.29,0,4.93-3.24,4.93-6.15v-12.94h7.27Z"></path><path class="uuid-8750c423-0271-4b46-a557-07ceffee1c15" d="m139.49,173.15v15.38h-7.27v-14.11c0-2.97-1.48-4.99-4.4-4.99-3.71,0-5.3,3.24-5.3,6.15v12.94h-7.27v-25.03l5.67-.21c.53,1.64.9,4.19.9,5.25h.21c1.22-2.97,3.66-5.36,8.11-5.36,6.2,0,9.33,4.3,9.33,9.97Z"></path><path class="uuid-8750c423-0271-4b46-a557-07ceffee1c15" d="m168.83,151.09v37.44l-5.89.21c-.37-1.54-.74-4.24-.69-4.93h-.16c-1.38,2.97-4.03,5.04-8.33,5.04-6.79,0-11.08-5.36-11.08-12.73,0-8.27,5.09-12.94,11.46-12.94,3.61,0,5.99,1.38,7.42,3.39v-15.49h7.27Zm-7.27,25.77v-1.7c0-2.76-2.07-5.89-5.94-5.89-3.39,0-5.57,2.65-5.57,6.84s2.23,6.63,5.73,6.63,5.78-2.97,5.78-5.89Z"></path><path class="uuid-8750c423-0271-4b46-a557-07ceffee1c15" d="m198.05,188.37s-1.54.48-3.55.48c-3.45,0-5.3-1.33-5.78-3.98-.8,1.54-2.86,3.98-8.06,3.98s-8.49-2.7-8.49-6.89c0-6.2,6.52-7.74,15.86-7.95h.32v-1.11c0-2.55-1.48-4.24-4.56-4.24-2.76,0-4.3,1.11-4.3,2.92,0,.37.05.69.21.95l-6.36,1.06s-.32-1.06-.32-2.44c0-4.77,4.19-7.95,11.08-7.95,7.37,0,11.35,3.71,11.35,10.02v8.17c0,1.17.42,1.64,1.38,1.64.32,0,.64-.05.9-.16l.32,5.52Zm-9.71-8.7v-2.02h-.32c-5.99.16-8.8,1.01-8.8,3.34,0,1.64,1.33,2.49,3.5,2.49,3.5,0,5.62-1.8,5.62-3.82Z"></path><path class="uuid-8750c423-0271-4b46-a557-07ceffee1c15" d="m219.53,187.04s-2.65,1.8-7.48,1.8c-6.58,0-10.02-3.55-10.02-10.66v-9.17h-3.82v-5.52h4.14v-7.05l7-.27v7.32h8.8v5.52h-8.8v8.86c0,3.34,1.27,4.83,4.08,4.83,2.55,0,4.03-1.33,4.03-1.33l2.07,5.67Z"></path><path class="uuid-8750c423-0271-4b46-a557-07ceffee1c15" d="m225.05,160c-2.6,0-4.67-1.86-4.67-4.51s2.07-4.51,4.67-4.51,4.72,1.91,4.72,4.51-2.12,4.51-4.72,4.51Zm-3.66,3.5l7.27-.21v25.24h-7.27v-25.03Z"></path><path class="uuid-8750c423-0271-4b46-a557-07ceffee1c15" d="m258.36,176.01c0,7.53-5.25,12.83-13.15,12.83s-13.21-5.3-13.21-12.83,5.25-12.83,13.21-12.83,13.15,5.3,13.15,12.83Zm-7.37,0c0-4.03-2.23-6.89-5.78-6.89s-5.83,2.86-5.83,6.89,2.23,6.89,5.83,6.89,5.78-2.81,5.78-6.89Z"></path><path class="uuid-8750c423-0271-4b46-a557-07ceffee1c15" d="m285.94,173.15v15.38h-7.27v-14.11c0-2.97-1.48-4.99-4.4-4.99-3.71,0-5.3,3.24-5.3,6.15v12.94h-7.27v-25.03l5.67-.21c.53,1.64.9,4.19.9,5.25h.21c1.22-2.97,3.66-5.36,8.11-5.36,6.2,0,9.33,4.3,9.33,9.97Z"></path><path class="uuid-8750c423-0271-4b46-a557-07ceffee1c15" d="m14.27,97.11h-2.52l-6.66-10.52c-.66-1.07-1.65-2.82-1.78-3.1l-.13.08c.08.23.15,1.65.15,3l.05,10.55H1.09v-16.77h2.57l6.66,10.62c1.04,1.68,1.5,2.64,1.7,3.05l.15-.08c-.03-.36-.15-1.6-.15-3.02l-.05-10.57h2.31v16.77Z"></path><path class="uuid-8750c423-0271-4b46-a557-07ceffee1c15" d="m31.61,80.33v16.77h-2.31v-7.72h-9.02v7.72h-2.31v-16.77h2.31v7.09h9.02v-7.09h2.31Z"></path><path class="uuid-8750c423-0271-4b46-a557-07ceffee1c15" d="m40.15,82.21c-1.96,0-3.23.94-3.23,2.54,0,3.56,9.17,1.75,9.17,8.03,0,2.69-2.36,4.47-5.97,4.47-3,0-5.16-1.12-6.18-1.98l1.45-1.8c.69.61,2.18,1.75,4.73,1.75,2.31,0,3.68-.94,3.68-2.44,0-4.47-9.22-2.29-9.22-8,0-2.74,2.29-4.6,5.56-4.6,4.55,0,5.54,2.9,5.84,4.09l-2.16.53c-.15-.89-1.07-2.59-3.69-2.59Z"></path><path class="uuid-8750c423-0271-4b46-a557-07ceffee1c15" d="m56.73,82.29h-5.39v-1.96h13.09v1.96h-5.39v14.81h-2.31v-14.81Z"></path><path class="uuid-8750c423-0271-4b46-a557-07ceffee1c15" d="m74.64,97.08s-.58.15-1.22.15c-1.25,0-2.16-.58-2.16-1.98v-.02h-.05c-.33.61-1.37,2.03-4.17,2.03-2.64,0-4.07-1.37-4.07-3.33,0-2.62,2.49-3.66,7.78-3.66h.36v-.76c0-1.63-.99-2.67-2.97-2.67-1.7,0-2.75.69-2.75,1.93,0,.28.05.43.13.61l-2.11.36s-.15-.46-.15-1.04c0-2.19,1.88-3.74,4.93-3.74,3.25,0,5.16,1.75,5.16,4.52v4.85c0,.66.18.91.74.91.15,0,.33-.02.43-.05l.13,1.88Zm-3.53-4.12v-1.14h-.36c-4.09,0-5.49.74-5.49,2.06,0,.94.71,1.5,2.24,1.5,2.34,0,3.61-1.3,3.61-2.41Z"></path><path class="uuid-8750c423-0271-4b46-a557-07ceffee1c15" d="m77.24,102.42c-1.14,0-1.86-.38-1.86-.38l.41-1.86s.56.3,1.3.3c1.24,0,1.78-.81,2.18-1.88l.46-1.19-5.08-12.3h2.52l3.3,8.39c.25.61.3.81.41,1.32h.03c.1-.56.2-.79.41-1.32l3.35-8.39h2.29l-5.69,14.13c-.69,1.78-1.8,3.18-4.02,3.18Z"></path><path class="uuid-8750c423-0271-4b46-a557-07ceffee1c15" d="m94.95,88.82c0-1.24-1.09-1.98-2.67-1.98s-2.36.69-2.36,1.68c0,2.82,7.22.79,7.29,5.34.02,2.16-2.03,3.41-4.96,3.41s-4.5-1.24-5.18-1.8l1.37-1.52c.51.48,2.01,1.45,3.84,1.45s2.64-.64,2.64-1.55c0-2.46-7.29-.89-7.29-5.34,0-1.98,1.88-3.53,4.7-3.53s4.7,1.47,4.7,3.46c0,.48-.1.84-.1.84l-2.06.15c.05-.18.08-.41.08-.58Z"></path><path class="uuid-8750c423-0271-4b46-a557-07ceffee1c15" d="m100.67,82.72c-.87,0-1.55-.64-1.55-1.5s.69-1.52,1.55-1.52,1.58.66,1.58,1.52-.71,1.5-1.58,1.5Zm-1.19,2.39l2.26-.08v12.07h-2.26v-11.99Z"></path><path class="uuid-8750c423-0271-4b46-a557-07ceffee1c15" d="m116.15,79.16v17.94l-1.65.08c-.13-.84-.25-2.31-.23-2.8h-.08c-.69,1.6-2.18,2.87-4.5,2.87-3.38,0-5.72-2.46-5.72-6.17s2.34-6.12,5.84-6.12c1.96,0,3.3.86,4.09,2.03v-7.83h2.24Zm-2.24,12.17v-.48c0-1.8-1.19-4.01-3.96-4.01-2.24,0-3.68,1.7-3.68,4.24s1.47,4.29,3.84,4.29c2.54,0,3.81-2.26,3.81-4.04Z"></path><path class="uuid-8750c423-0271-4b46-a557-07ceffee1c15" d="m120.68,91.72c.23,2.21,1.73,3.66,4.12,3.66,1.83,0,2.87-.86,3.41-1.58l1.37,1.25c-1.12,1.47-2.9,2.21-4.95,2.21-3.84,0-6.25-2.46-6.25-6.12s2.31-6.17,5.94-6.17,5.46,2.46,5.46,5.62c0,.71-.1,1.14-.1,1.14h-8.99Zm.05-1.6h6.76c-.02-1.98-1.27-3.28-3.18-3.28s-3.25,1.35-3.58,3.28Z"></path><path class="uuid-c1a52835-4dec-40a9-95c0-4d06bec79939" d="m335.71,47.22c1.25-1.02,5.66-5.16,9.03-7.61,3.63-2.63,8.06-5.21,14.16-7.31h0c11.45-3.28,5.69-21.64-6.61-17.8-.42.13-4.55,2.05-7.45,3.83-13.84,8.49,1.11-28.4-17.83-15.63-10.84,7.31-1.26,52.63,8.71,44.51Z"></path><path class="uuid-1cc10b9b-c1c0-469e-8922-c26edfc8fb61" d="m390.87,90.12c-3.19-5.11-7.12-2.43-10.72-.4-5.83,3.28-11.57,6.72-17.38,10.05-1.78,1.02-3.24,1.65-6.28,2.12,2.34-2.92,4.18-4.03,6.27-5.55,6.21-4.51,12.61-8.77,18.84-13.25,2.38-1.71,4.65-3.64,6.71-5.74,2.09-2.12,2.87-4.88,1.18-7.54-1.8-2.84-4.63-2.53-7.39-1.51-7.62,2.81-13.84,8.1-20.97,11.79-5.3,2.74-10.57,5.54-16.21,7.71,3.3-4.59,8.11-7.18,12.37-10.43,5.79-4.41,11.79-8.55,17.61-12.93,2.03-1.53,4.27-3.33,2.8-6.37-1.52-3.16-4.32-3.76-7.51-3.05-4.73,1.05-8.6,3.85-12.52,6.44-6.52,4.29-12.91,8.79-19.67,12.83,3.08-5.24,6.94-8.8,11.56-12.4,2.07-1.61,4.32-2.73,5.75-4.34,1.36-1.54,2-3.48.64-5.4-1.35-1.91-3.37-1.86-5.34-1.3-8.12,2.29-16.56,7.39-24.27,14.07,3.26,10.45,4.47,21.06,2.7,29.84-2.33,11.63-8.09,21.01-18.7,27.84-3.81,2.45-7.7,4.54-11.67,6.31,1.53,6.3,4.52,12.26,9.25,17.9,9.18,10.94,19.86,19.06,32.92,24.35,1.63.66,3.35,1.15,5.06,1.56,3.34.8,5.79-.77,7.57-3.36,1.79-2.6,1.29-5.19-.62-7.62-2.93-3.7-6.1-7.26-8.66-11.2-5.07-7.8-4.39-14.01,2.1-20.75,7.02-7.29,15.56-12.65,23.84-18.31,5.53-3.78,11.19-7.36,16.63-11.25,3.38-2.42,7.18-5.16,4.09-10.1Z"></path><path class="uuid-275864d7-42bf-4e1c-bba3-ab460de860ba" d="m297.74,112.75c1.67-16.13,13.76-34.94,28.61-47.82-5.19-16.66-15.61-32.92-27.61-40.72-1.62-1.05-3.42-1.66-5.17-.32-1.76,1.35-1.73,3.27-.93,5.04.83,1.85,2.55,3.49,3.96,5.52,3.15,4.53,5.64,8.82,6.95,14.41-4.96-5.53-9.46-11.37-14.13-17.06-2.81-3.43-5.51-7.03-9.48-9.31-2.68-1.53-5.36-1.77-7.62.65-2.18,2.33-.66,4.58.74,6.53,4.02,5.57,8.26,10.98,12.25,16.57,2.93,4.11,6.54,7.8,8.23,12.86-4.47-3.54-8.44-7.53-12.44-11.48-5.39-5.32-9.52-11.83-15.59-16.49-2.2-1.69-4.66-2.76-7.08-.71-2.27,1.93-2.34,4.63-1.05,7.13,1.27,2.46,2.77,4.83,4.44,7.04,4.36,5.78,8.94,11.41,13.27,17.21,1.46,1.95,2.81,3.47,4.09,6.75-2.61-1.28-3.75-2.26-5.07-3.67-4.3-4.62-8.51-9.33-12.84-13.92-2.68-2.83-5.47-6.34-9.77-2.63-4.16,3.59-1.51,7.12.86,10.25,3.82,5.03,7.91,9.84,11.84,14.79,5.88,7.42,12.07,14.64,16.36,23.17,3.96,7.88,2.84,13.67-3.91,19.28-3.41,2.84-7.26,5.15-10.94,7.67-2.4,1.65-3.58,3.85-2.69,6.69.88,2.83,2.65,4.93,5.88,5.15,1.66.11,3.34.15,5,.01,8.79-.74,16.98-2.92,24.8-6.41-1.25-5.15-1.52-10.53-.94-16.16Z"></path><path class="uuid-370e4140-e488-4f42-a7be-cb63ce936b16" d="m329.05,94.76c1.76-8.78.55-19.39-2.7-29.84-14.85,12.89-26.94,31.7-28.61,47.82-.58,5.63-.31,11.01.94,16.16,3.97-1.77,7.86-3.86,11.67-6.31,10.61-6.83,16.37-16.21,18.7-27.84Z"></path><path class="uuid-8750c423-0271-4b46-a557-07ceffee1c15" d="m36.05,201.95v4.43h6.21v1.69h-6.21v4.98h6.98v1.69h-8.97v-14.48h8.97v1.69h-6.98Z"></path><path class="uuid-8750c423-0271-4b46-a557-07ceffee1c15" d="m61.64,208.44v6.3h-1.95v-6.3c0-1.51-.85-2.52-2.41-2.52-1.95,0-2.92,1.91-2.92,3.4v5.42h-1.95v-6.3c0-1.51-.86-2.52-2.41-2.52-1.95,0-2.92,1.91-2.92,3.4v5.42h-1.93v-10.35l1.36-.07c.18.79.26,1.95.26,2.41.53-1.32,1.67-2.44,3.55-2.44s3.18.92,3.73,2.41c.55-1.32,1.69-2.41,3.55-2.41,2.48,0,4.04,1.67,4.04,4.15Z"></path><path class="uuid-8750c423-0271-4b46-a557-07ceffee1c15" d="m74.56,209.59c0,3.18-2.02,5.29-5.04,5.29-1.62,0-2.83-.77-3.53-1.84v6.19h-1.93v-14.83l1.36-.07c.15.7.29,2,.26,2.41h.02c.57-1.34,1.8-2.48,3.93-2.48,2.92,0,4.94,2.13,4.94,5.33Zm-1.97,0c0-2.22-1.27-3.71-3.31-3.71-2.19,0-3.29,1.95-3.29,3.49v.42c0,1.56,1.03,3.46,3.42,3.46,1.93,0,3.18-1.47,3.18-3.66Z"></path><path class="uuid-8750c423-0271-4b46-a557-07ceffee1c15" d="m86.49,209.61c0,3.14-2.13,5.27-5.33,5.27s-5.33-2.13-5.33-5.27,2.13-5.35,5.33-5.35,5.33,2.22,5.33,5.35Zm-1.97,0c0-2.15-1.34-3.73-3.36-3.73s-3.36,1.58-3.36,3.73,1.34,3.64,3.36,3.64,3.36-1.49,3.36-3.64Z"></path><path class="uuid-8750c423-0271-4b46-a557-07ceffee1c15" d="m102.94,204.39l-3.18,10.35h-2.3l-2.17-7.17c-.07-.24-.13-.55-.15-.72h-.04c-.02.18-.09.48-.15.72l-2.26,7.17h-2.26l-3.38-10.35h2.17l2.06,7.24c.15.57.31.97.35,1.14h.04c.04-.18.2-.66.33-1.14l2.13-7.24h2l2.13,7.17c.13.48.24,1.03.29,1.21h.04c.04-.18.15-.64.33-1.21l2.06-7.17h1.97Z"></path><path class="uuid-8750c423-0271-4b46-a557-07ceffee1c15" d="m105.59,210.09c.2,1.91,1.49,3.16,3.55,3.16,1.58,0,2.48-.75,2.94-1.36l1.18,1.07c-.97,1.27-2.5,1.91-4.28,1.91-3.31,0-5.4-2.13-5.4-5.29s2-5.33,5.13-5.33,4.72,2.13,4.72,4.85c0,.61-.09.99-.09.99h-7.77Zm.04-1.38h5.83c-.02-1.71-1.1-2.83-2.74-2.83s-2.81,1.16-3.09,2.83Z"></path><path class="uuid-8750c423-0271-4b46-a557-07ceffee1c15" d="m121.17,204.43l-.48,1.95c-.22-.13-.53-.24-.97-.24-1.16,0-2.48,1.03-2.48,3.18v5.42h-1.93v-10.35l1.36-.07c.18.79.26,1.95.26,2.41h.09c.39-1.36,1.27-2.48,2.81-2.48.46,0,.94.07,1.34.18Z"></path><path class="uuid-8750c423-0271-4b46-a557-07ceffee1c15" d="m123.38,202.33c-.75,0-1.34-.55-1.34-1.29s.59-1.32,1.34-1.32,1.36.57,1.36,1.32-.61,1.29-1.36,1.29Zm-1.03,2.06l1.95-.07v10.42h-1.95v-10.35Z"></path><path class="uuid-8750c423-0271-4b46-a557-07ceffee1c15" d="m136.26,208.4v6.34h-1.95v-6.34c0-1.51-.86-2.52-2.41-2.52-2.15,0-3.11,1.95-3.11,3.44v5.42h-1.93v-10.35l1.36-.07c.18.79.26,1.95.26,2.41h.07c.55-1.29,1.71-2.48,3.69-2.48,2.48,0,4.04,1.67,4.04,4.15Z"></path><path class="uuid-8750c423-0271-4b46-a557-07ceffee1c15" d="m148.34,216.1c0,1.78-1.45,3.22-5.4,3.22-3.73,0-5.44-1.1-5.44-2.85,0-1.01.59-1.78,1.76-2.19-.61-.35-1.01-.9-1.01-1.76s.61-1.45,1.36-1.73c-.79-.66-1.23-1.6-1.23-2.74,0-2.26,1.76-3.77,4.41-3.77,1.23,0,2.28.33,3.05.9.75-.35,1.07-1.21,1.07-2.48l1.65.35c0,1.97-1.32,2.74-2,2.85.44.59.68,1.32.68,2.15,0,2.26-1.78,3.77-4.43,3.77-.68,0-1.32-.11-1.86-.29-.57.09-.94.33-.94.75,0,.72.83.9,2.26.9h2.15c2.46,0,3.93,1.01,3.93,2.92Zm-1.91,0c0-1.05-.83-1.27-2.39-1.27h-2.3c-1.82,0-2.32.61-2.32,1.36,0,1.05,1.01,1.51,3.53,1.51s3.49-.48,3.49-1.6Zm-6.1-8.05c0,1.32.97,2.17,2.46,2.17s2.5-.86,2.5-2.17-.99-2.17-2.48-2.17-2.48.86-2.48,2.17Z"></path><path class="uuid-8750c423-0271-4b46-a557-07ceffee1c15" d="m166.28,200.26v14.48h-2v-6.67h-7.79v6.67h-2v-14.48h2v6.12h7.79v-6.12h2Z"></path><path class="uuid-8750c423-0271-4b46-a557-07ceffee1c15" d="m170.51,210.09c.2,1.91,1.49,3.16,3.55,3.16,1.58,0,2.48-.75,2.94-1.36l1.18,1.07c-.97,1.27-2.5,1.91-4.28,1.91-3.31,0-5.4-2.13-5.4-5.29s2-5.33,5.13-5.33,4.72,2.13,4.72,4.85c0,.61-.09.99-.09.99h-7.77Zm.04-1.38h5.83c-.02-1.71-1.1-2.83-2.74-2.83s-2.81,1.16-3.09,2.83Z"></path><path class="uuid-8750c423-0271-4b46-a557-07ceffee1c15" d="m189.7,214.72s-.5.13-1.05.13c-1.07,0-1.86-.51-1.86-1.71v-.02h-.04c-.29.53-1.18,1.76-3.6,1.76-2.28,0-3.51-1.18-3.51-2.87,0-2.26,2.15-3.16,6.71-3.16h.31v-.66c0-1.4-.86-2.3-2.57-2.3-1.47,0-2.37.59-2.37,1.67,0,.24.04.37.11.53l-1.82.31s-.13-.4-.13-.9c0-1.89,1.62-3.22,4.25-3.22,2.81,0,4.45,1.51,4.45,3.9v4.19c0,.57.15.79.64.79.13,0,.29-.02.37-.04l.11,1.62Zm-3.05-3.55v-.99h-.31c-3.53,0-4.74.64-4.74,1.78,0,.81.61,1.29,1.93,1.29,2.02,0,3.11-1.12,3.11-2.08Z"></path><path class="uuid-8750c423-0271-4b46-a557-07ceffee1c15" d="m191.41,199.25h1.93v15.49h-1.93v-15.49Z"></path><path class="uuid-8750c423-0271-4b46-a557-07ceffee1c15" d="m203.04,214.19s-1.03.68-2.72.68c-2.68,0-3.75-1.43-3.75-4.08v-4.85h-1.64v-1.56h1.64v-3.07l1.95-.11v3.18h4.01v1.56h-4.01v4.78c0,1.67.59,2.5,2,2.5,1.21,0,1.91-.59,1.91-.59l.61,1.56Z"></path><path class="uuid-8750c423-0271-4b46-a557-07ceffee1c15" d="m213.63,208.4v6.34h-1.95v-6.34c0-1.51-.86-2.52-2.41-2.52-2.15,0-3.11,1.91-3.11,3.46v5.4h-1.95v-15.49h1.91v6.95h.04c.61-1.07,1.71-1.95,3.44-1.95,2.48,0,4.04,1.67,4.04,4.15Z"></path><path class="uuid-8750c423-0271-4b46-a557-07ceffee1c15" d="m229.99,212.61l1.34,1.53-1.49,1.05-1.21-1.4c-1.03.66-2.33,1.03-3.82,1.03-2.96,0-4.94-1.67-4.94-4.04,0-1.95,1.23-3.07,2.92-3.71-.66-.75-1.34-1.75-1.34-3.14,0-2.08,1.64-3.6,3.84-3.6s3.64,1.45,3.64,3.27-1.23,3.03-3.36,3.88l3.22,3.73c.57-.85.86-2.02.86-3.49l1.75.57c0,1.71-.5,3.18-1.43,4.3Zm-2.52-.15l-3.69-4.28c-1.18.46-1.84,1.25-1.84,2.39,0,1.43,1.14,2.46,2.87,2.46,1.05,0,1.93-.2,2.65-.57Zm-4.1-8.62c0,1.12.7,1.95,1.27,2.59,2.04-.79,2.5-1.51,2.5-2.59,0-1.14-.75-1.91-1.84-1.91-1.16,0-1.93.77-1.93,1.91Z"></path><path class="uuid-8750c423-0271-4b46-a557-07ceffee1c15" d="m255.13,200.26l-4.15,14.48h-2.19l-2.68-9.59c-.22-.75-.42-1.76-.46-2.08h-.04c-.04.33-.26,1.34-.48,2.08l-2.81,9.59h-2.11l-4.12-14.48h2.06l2.72,10.48.42,1.73h.04c.13-.57.24-1.14.42-1.73l2.96-10.48h1.86l2.96,10.48c.18.64.29,1.16.42,1.73h.04l.42-1.73,2.72-10.48h2Z"></path><path class="uuid-8750c423-0271-4b46-a557-07ceffee1c15" d="m257.17,210.09c.2,1.91,1.49,3.16,3.55,3.16,1.58,0,2.48-.75,2.94-1.36l1.18,1.07c-.97,1.27-2.5,1.91-4.28,1.91-3.31,0-5.4-2.13-5.4-5.29s2-5.33,5.13-5.33,4.72,2.13,4.72,4.85c0,.61-.09.99-.09.99h-7.77Zm.04-1.38h5.83c-.02-1.71-1.1-2.83-2.74-2.83s-2.81,1.16-3.09,2.83Z"></path><path class="uuid-8750c423-0271-4b46-a557-07ceffee1c15" d="m266.9,199.25h1.93v15.49h-1.93v-15.49Z"></path><path class="uuid-8750c423-0271-4b46-a557-07ceffee1c15" d="m271.4,199.25h1.93v15.49h-1.93v-15.49Z"></path><path class="uuid-8750c423-0271-4b46-a557-07ceffee1c15" d="m286.38,209.59c0,3.18-2.02,5.29-5.04,5.29-2.06,0-3.31-1.1-3.84-2.48.02.42-.11,1.64-.26,2.35h-1.36v-15.49h1.93v6.91c.66-1.08,1.82-1.91,3.64-1.91,2.92,0,4.93,2.13,4.93,5.33Zm-1.97,0c0-2.22-1.27-3.71-3.31-3.71-2.19,0-3.29,1.95-3.29,3.49v.42c0,1.56,1.03,3.46,3.42,3.46,1.93,0,3.18-1.47,3.18-3.66Z"></path><path class="uuid-8750c423-0271-4b46-a557-07ceffee1c15" d="m289.67,210.09c.2,1.91,1.49,3.16,3.55,3.16,1.58,0,2.48-.75,2.94-1.36l1.18,1.07c-.97,1.27-2.5,1.91-4.28,1.91-3.31,0-5.4-2.13-5.4-5.29s2-5.33,5.13-5.33,4.72,2.13,4.72,4.85c0,.61-.09.99-.09.99h-7.77Zm.04-1.38h5.83c-.02-1.71-1.1-2.83-2.74-2.83s-2.81,1.16-3.09,2.83Z"></path><path class="uuid-8750c423-0271-4b46-a557-07ceffee1c15" d="m300.44,202.33c-.75,0-1.34-.55-1.34-1.29s.59-1.32,1.34-1.32,1.36.57,1.36,1.32-.61,1.29-1.36,1.29Zm-1.03,2.06l1.95-.07v10.42h-1.95v-10.35Z"></path><path class="uuid-8750c423-0271-4b46-a557-07ceffee1c15" d="m313.31,208.4v6.34h-1.95v-6.34c0-1.51-.86-2.52-2.41-2.52-2.15,0-3.11,1.95-3.11,3.44v5.42h-1.93v-10.35l1.36-.07c.18.79.26,1.95.26,2.41h.07c.55-1.29,1.71-2.48,3.69-2.48,2.48,0,4.04,1.67,4.04,4.15Z"></path><path class="uuid-8750c423-0271-4b46-a557-07ceffee1c15" d="m325.4,216.1c0,1.78-1.45,3.22-5.39,3.22-3.73,0-5.44-1.1-5.44-2.85,0-1.01.59-1.78,1.76-2.19-.61-.35-1.01-.9-1.01-1.76s.61-1.45,1.36-1.73c-.79-.66-1.23-1.6-1.23-2.74,0-2.26,1.76-3.77,4.41-3.77,1.23,0,2.28.33,3.05.9.75-.35,1.07-1.21,1.07-2.48l1.65.35c0,1.97-1.32,2.74-2,2.85.44.59.68,1.32.68,2.15,0,2.26-1.78,3.77-4.43,3.77-.68,0-1.32-.11-1.86-.29-.57.09-.94.33-.94.75,0,.72.83.9,2.26.9h2.15c2.46,0,3.93,1.01,3.93,2.92Zm-1.91,0c0-1.05-.83-1.27-2.39-1.27h-2.3c-1.82,0-2.33.61-2.33,1.36,0,1.05,1.01,1.51,3.53,1.51s3.49-.48,3.49-1.6Zm-6.1-8.05c0,1.32.96,2.17,2.46,2.17s2.5-.86,2.5-2.17-.99-2.17-2.48-2.17-2.48.86-2.48,2.17Z"></path><path class="uuid-8750c423-0271-4b46-a557-07ceffee1c15" d="m332.28,202.33c-.75,0-1.34-.55-1.34-1.29s.59-1.32,1.34-1.32,1.36.57,1.36,1.32-.61,1.29-1.36,1.29Zm-1.03,2.06l1.95-.07v10.42h-1.95v-10.35Z"></path><path class="uuid-8750c423-0271-4b46-a557-07ceffee1c15" d="m345.16,208.4v6.34h-1.95v-6.34c0-1.51-.86-2.52-2.41-2.52-2.15,0-3.11,1.95-3.11,3.44v5.42h-1.93v-10.35l1.36-.07c.18.79.26,1.95.26,2.41h.07c.55-1.29,1.71-2.48,3.69-2.48,2.48,0,4.04,1.67,4.04,4.15Z"></path><path class="uuid-8750c423-0271-4b46-a557-07ceffee1c15" d="m354.74,201.95h-4.65v-1.69h11.3v1.69h-4.65v12.79h-2v-12.79Z"></path><path class="uuid-8750c423-0271-4b46-a557-07ceffee1c15" d="m370.2,214.72s-.5.13-1.05.13c-1.07,0-1.87-.51-1.87-1.71v-.02h-.04c-.29.53-1.18,1.76-3.6,1.76-2.28,0-3.51-1.18-3.51-2.87,0-2.26,2.15-3.16,6.71-3.16h.31v-.66c0-1.4-.86-2.3-2.57-2.3-1.47,0-2.37.59-2.37,1.67,0,.24.04.37.11.53l-1.82.31s-.13-.4-.13-.9c0-1.89,1.62-3.22,4.26-3.22,2.81,0,4.45,1.51,4.45,3.9v4.19c0,.57.15.79.64.79.13,0,.29-.02.37-.04l.11,1.62Zm-3.05-3.55v-.99h-.31c-3.53,0-4.74.64-4.74,1.78,0,.81.61,1.29,1.93,1.29,2.02,0,3.11-1.12,3.11-2.08Z"></path><path class="uuid-8750c423-0271-4b46-a557-07ceffee1c15" d="m372.44,219.33c-.99,0-1.6-.33-1.6-.33l.35-1.6s.48.26,1.12.26c1.07,0,1.53-.7,1.89-1.62l.4-1.03-4.39-10.62h2.17l2.85,7.24c.22.53.26.7.35,1.14h.02c.09-.48.18-.68.35-1.14l2.89-7.24h1.97l-4.91,12.19c-.59,1.54-1.56,2.74-3.47,2.74Z"></path><path class="uuid-8750c423-0271-4b46-a557-07ceffee1c15" d="m387.73,207.59c0-1.07-.94-1.71-2.3-1.71s-2.04.59-2.04,1.45c0,2.44,6.23.68,6.3,4.61.02,1.86-1.76,2.94-4.28,2.94s-3.88-1.08-4.47-1.56l1.18-1.32c.44.42,1.73,1.25,3.31,1.25s2.28-.55,2.28-1.34c0-2.13-6.3-.77-6.3-4.61,0-1.71,1.62-3.05,4.06-3.05s4.06,1.27,4.06,2.98c0,.42-.09.72-.09.72l-1.78.13c.04-.15.07-.35.07-.51Z"></path><path class="uuid-8750c423-0271-4b46-a557-07ceffee1c15" d="m392.66,202.33c-.75,0-1.34-.55-1.34-1.29s.59-1.32,1.34-1.32,1.36.57,1.36,1.32-.61,1.29-1.36,1.29Zm-1.03,2.06l1.95-.07v10.42h-1.95v-10.35Z"></path><path class="uuid-8750c423-0271-4b46-a557-07ceffee1c15" d="m406.02,199.25v15.49l-1.43.07c-.11-.72-.22-2-.2-2.41h-.07c-.59,1.38-1.89,2.48-3.88,2.48-2.92,0-4.94-2.13-4.94-5.33s2.02-5.29,5.04-5.29c1.69,0,2.85.75,3.53,1.76v-6.76h1.93Zm-1.93,10.51v-.42c0-1.56-1.03-3.46-3.42-3.46-1.93,0-3.18,1.47-3.18,3.66s1.27,3.71,3.31,3.71c2.19,0,3.29-1.95,3.29-3.49Z"></path><path class="uuid-8750c423-0271-4b46-a557-07ceffee1c15" d="m409.92,210.09c.2,1.91,1.49,3.16,3.55,3.16,1.58,0,2.48-.75,2.94-1.36l1.18,1.07c-.96,1.27-2.5,1.91-4.28,1.91-3.31,0-5.39-2.13-5.39-5.29s2-5.33,5.13-5.33,4.72,2.13,4.72,4.85c0,.61-.09.99-.09.99h-7.76Zm.04-1.38h5.84c-.02-1.71-1.1-2.83-2.74-2.83s-2.81,1.16-3.09,2.83Z"></path></g></g></svg>