<svg xmlns="http://www.w3.org/2000/svg" id="uuid-6c095185-fd65-451f-8c7a-eabef51ba7e3" viewBox="0 0 251.45 304.71"><defs><style>.uuid-844ff3f0-b63e-4c12-81f4-74875f68a33e{fill:#52b7bc;}.uuid-844ff3f0-b63e-4c12-81f4-74875f68a33e,.uuid-efcbcfb1-5164-4358-9a03-9530b7dc07e7,.uuid-4bb6816a-b830-4255-8ef8-57d2a3d84b2c,.uuid-acbcc90d-1127-44b2-8c0c-49320fa5101a{stroke-width:0px;}.uuid-efcbcfb1-5164-4358-9a03-9530b7dc07e7{fill:#d9d7ed;}.uuid-4bb6816a-b830-4255-8ef8-57d2a3d84b2c{fill:#b6c3de;}.uuid-acbcc90d-1127-44b2-8c0c-49320fa5101a{fill:#e95e79;}</style></defs><path class="uuid-acbcc90d-1127-44b2-8c0c-49320fa5101a" d="m152.24,83.21c2.2-1.8,9.97-9.1,15.9-13.41,6.4-4.64,14.21-9.18,24.95-12.88h0c20.18-5.78,10.02-38.14-11.65-31.36-.74.23-8.01,3.61-13.13,6.75-24.39,14.97,1.96-50.03-31.41-27.54-19.11,12.88-2.22,92.74,15.34,78.42Z"></path><path class="uuid-efcbcfb1-5164-4358-9a03-9530b7dc07e7" d="m249.44,158.8c-5.61-9-12.54-4.28-18.88-.71-10.27,5.78-20.39,11.85-30.62,17.72-3.13,1.8-5.7,2.91-11.07,3.74,4.12-5.14,7.37-7.1,11.04-9.78,10.94-7.95,22.22-15.45,33.2-23.35,4.2-3.02,8.19-6.42,11.82-10.11,3.68-3.74,5.05-8.6,2.07-13.29-3.18-5.01-8.15-4.45-13.01-2.66-13.42,4.95-24.39,14.28-36.95,20.78-9.33,4.83-18.62,9.75-28.56,13.58,5.81-8.09,14.3-12.66,21.8-18.37,10.21-7.77,20.78-15.07,31.03-22.78,3.58-2.69,7.53-5.86,4.94-11.23-2.68-5.57-7.6-6.63-13.23-5.38-8.34,1.86-15.15,6.79-22.07,11.35-11.49,7.57-22.74,15.48-34.66,22.61,5.43-9.24,12.23-15.51,20.37-21.85,3.64-2.84,7.62-4.8,10.12-7.65,2.4-2.72,3.52-6.14,1.13-9.51-2.38-3.36-5.94-3.27-9.41-2.29-14.3,4.04-29.18,13.01-42.76,24.8,5.74,18.41,7.87,37.1,4.76,52.57-4.11,20.49-14.26,37.02-32.96,49.05-6.72,4.32-13.56,8-20.56,11.12,2.69,11.11,7.96,21.61,16.29,31.54,16.18,19.28,35,33.59,58.02,42.9,2.88,1.16,5.9,2.02,8.92,2.74,5.88,1.4,10.2-1.36,13.34-5.92,3.15-4.58,2.28-9.15-1.1-13.42-5.16-6.53-10.74-12.79-15.26-19.74-8.94-13.75-7.74-24.69,3.7-36.56,12.37-12.84,27.41-22.29,42.01-32.27,9.74-6.66,19.71-12.97,29.31-19.83,5.96-4.26,12.64-9.08,7.21-17.8Z"></path><path class="uuid-844ff3f0-b63e-4c12-81f4-74875f68a33e" d="m85.35,198.68c2.94-28.41,24.24-61.56,50.41-84.27-9.15-29.35-27.51-58-48.66-71.75-2.85-1.85-6.03-2.93-9.12-.57-3.1,2.37-3.04,5.76-1.65,8.88,1.46,3.27,4.49,6.15,6.98,9.72,5.56,7.99,9.93,15.54,12.24,25.39-8.74-9.75-16.67-20.03-24.9-30.06-4.96-6.04-9.72-12.39-16.71-16.4-4.72-2.7-9.45-3.12-13.43,1.14-3.83,4.11-1.17,8.07,1.31,11.5,7.08,9.82,14.56,19.35,21.59,29.21,5.16,7.25,11.53,13.74,14.5,22.65-7.88-6.23-14.87-13.26-21.93-20.23-9.5-9.37-16.77-20.84-27.48-29.06-3.88-2.98-8.2-4.87-12.47-1.25-4,3.4-4.12,8.16-1.85,12.56,2.23,4.33,4.88,8.52,7.82,12.41,7.68,10.19,15.75,20.1,23.38,30.33,2.57,3.44,4.94,6.11,7.21,11.9-4.6-2.26-6.61-3.98-8.93-6.47-7.57-8.15-14.99-16.44-22.63-24.52-4.72-4.99-9.64-11.18-17.21-4.64-7.34,6.33-2.67,12.55,1.51,18.05,6.72,8.86,13.95,17.34,20.86,26.06,10.36,13.07,21.27,25.8,28.82,40.82,6.98,13.89,5,24.08-6.89,33.97-6.01,5-12.79,9.08-19.27,13.51-4.23,2.9-6.3,6.78-4.74,11.78,1.55,4.98,4.67,8.69,10.36,9.07,2.92.2,5.89.27,8.81.03,15.49-1.3,29.91-5.14,43.71-11.3-2.2-9.08-2.68-18.56-1.65-28.48Z"></path><path class="uuid-4bb6816a-b830-4255-8ef8-57d2a3d84b2c" d="m140.52,166.98c3.1-15.47.98-34.16-4.76-52.57-26.16,22.71-47.47,55.85-50.41,84.27-1.02,9.91-.54,19.39,1.65,28.48,7-3.12,13.84-6.8,20.56-11.12,18.69-12.03,28.84-28.56,32.96-49.05Z"></path></svg>